<svg xmlns="http://www.w3.org/2000/svg" viewBox="0 0 256 256" fill="none">
  <rect width="256" height="256" rx="48" fill="#1a1a1a"/>
  <!-- Grid of library blocks -->
  <rect x="40" y="44" width="50" height="50" rx="10" fill="#2d2d2d" stroke="#4a4a4a" stroke-width="2"/>
  <rect x="40" y="102" width="50" height="50" rx="10" fill="#2d2d2d" stroke="#4a4a4a" stroke-width="2"/>
  <rect x="40" y="160" width="50" height="50" rx="10" fill="#2d2d2d" stroke="#4a4a4a" stroke-width="2"/>
  <rect x="102" y="44" width="50" height="50" rx="10" fill="#353535" stroke="#4a4a4a" stroke-width="2"/>
  <rect x="102" y="102" width="50" height="50" rx="10" fill="#3d3d3d" stroke="#555" stroke-width="2"/>
  <rect x="102" y="160" width="50" height="50" rx="10" fill="#2d2d2d" stroke="#4a4a4a" stroke-width="2"/>
  <rect x="164" y="44" width="50" height="50" rx="10" fill="#2d2d2d" stroke="#4a4a4a" stroke-width="2"/>
  <rect x="164" y="102" width="50" height="50" rx="10" fill="#2d2d2d" stroke="#4a4a4a" stroke-width="2"/>
  <rect x="164" y="160" width="50" height="50" rx="10" fill="#2d2d2d" stroke="#4a4a4a" stroke-width="2"/>
  <!-- Selected / active block with sound bars -->
  <rect x="102" y="102" width="50" height="50" rx="10" fill="#3a3a3a" stroke="#666" stroke-width="2"/>
  <rect x="114" y="122" width="4" height="16" rx="2" fill="#888"/>
  <rect x="122" y="118" width="4" height="24" rx="2" fill="#bbb"/>
  <rect x="130" y="114" width="4" height="32" rx="2" fill="#fff"/>
  <rect x="138" y="118" width="4" height="24" rx="2" fill="#bbb"/>
  <rect x="146" y="122" width="4" height="16" rx="2" fill="#888"/>
</svg>
